<svg xmlns="http://www.w3.org/2000/svg" width="24" height="24" viewBox="0 0 24 24">
  <path fill="#FFF" fill-rule="evenodd" d="M11.6945 8.111c-1.25-2.3055-2.8056-4.6666-4.7223-7C3.5556 2.6945 1 5.8334.25 9.611c4.5556-.0833 8.3334-.5833 11.4445-1.5zM3.1667 20.139c2.5278-3.8612 5.7222-6.4724 9.5-7.8057.3056-.111.611-.1944.9167-.2778-.3334-.7778-.6667-1.5278-1.0556-2.3055-3.389 1.0555-7.5 1.611-12.5278 1.6944V12c0 3.139 1.1944 6 3.1667 8.139zm13.5556 2.8888c-.4723-2.7223-1.1945-5.889-2.4723-9.2778-3.4722.9722-6.889 3.25-9.6944 7.6667C6.5834 23.0277 9.1946 24 12 24c1.6667 0 3.25-.3333 4.7223-.9722zm7.139-9.2223c-2.3335-.5833-4.9446-.861-7.5835-.4722 1.1667 3.139 1.861 6.0834 2.3334 8.6667 2.7777-1.8333 4.75-4.7778 5.25-8.1945zm-10.1946-6.361c2.639-1.0557 4.7222-2.5 6.3334-4.3612C17.889 1.1666 15.0836 0 12 0c-1.0277 0-2.0278.1388-3 .3888 1.889 2.3334 3.4167 4.7223 4.6667 7.0556zM24 11.9445c-.0277-2.8613-1.0277-5.5-2.7222-7.5558-1.75 2-4 3.5556-6.7778 4.6667.389.861.7778 1.6945 1.1112 2.5278 2.611-.4444 5.4166-.3056 8.389.361z"/>
</svg>
